<svg xmlns="http://www.w3.org/2000/svg" width="169.09" height="488.55" viewBox="0 0 169.09 488.55"><g transform="translate(0 -253.203)"><line x2="166" transform="translate(0 741.253)" fill="none" stroke="#3f3d56" stroke-miterlimit="10" stroke-width="1"/><path d="M185.324,400.757S176,398,174,401s2.727,24.748,2.727,24.748L197.273,427,190.1,408.89Z" transform="translate(-84.5 -79.126)" fill="#2f2e41"/><path d="M113.444,579.347s18.695,41.042,4.3,39.753-19.984-39.753-19.984-39.753Z" transform="translate(-84.5 -79.126)" fill="#a0616a"/><path d="M235.711,575.071s-8.2,44.347,5.455,39.611,9.764-43.409,9.764-43.409Z" transform="translate(-84.5 -79.126)" fill="#a0616a"/><path d="M181.347,390.466s-.215,20.629,7.736,21.7S184.57,424.2,184.57,424.2L170.388,427l-20.414-1.5-9.025-11.6s15.9-7.521,9.025-30.943Z" transform="translate(-84.5 -79.126)" fill="#a0616a"/><path d="M181.347,390.466s-.215,20.629,7.736,21.7S184.57,424.2,184.57,424.2L170.388,427l-20.414-1.5-9.025-11.6s15.9-7.521,9.025-30.943Z" transform="translate(-84.5 -79.126)" opacity="0.1"/><path d="M217.876,564.95s10.1,21.7,2.149,89.82c0,0,2.364,24.067.43,28.579S202.619,749.1,202.619,749.1s-20.414,4.513-23.207-9.025c0,0,2.793-19.339,2.579-22.348s4.513-35.885,4.513-35.885l-9.67-63.6-7.306,57.373s0,16.546-2.364,20.2,0,77.142,0,77.142,6.661,11.174-3.438,11.389-19.124-.215-19.984-7.306-1.289-14.182-3.438-18.48-4.942-53.505-4.3-70.7-14.182-105.507-9.455-114.747S217.876,564.95,217.876,564.95Z" transform="translate(-84.5 -79.126)" fill="#2f2e41"/><circle cx="25.786" cy="25.786" r="25.786" transform="translate(60.102 267.504)" fill="#a0616a"/><path d="M144.6,414.318s15.686,11.6,38.464,2.364c0,0,7.521-3.653,6.876-9.24s15.686,44.91,15.686,44.91l16.546,87.886-.86,35.885s-7.306-3.653-30.083,4.513-59.952-9.24-59.952-9.24l1.289-92.184,1.289-53.72,3.438-11.819S139.015,410.45,144.6,414.318Z" transform="translate(-84.5 -79.126)" fill="#f2f2f2"/><path d="M182.063,399.893s3.8-.617,7.449,5.185,12.248,9.455,12.248,9.455S222.6,415.822,225.612,427s10.529,26.43,14.182,54.58,10.959,73.06,12.033,76.713-1.5,14.827,1.5,18.265-21.273,3.438-21.273,3.438-2.149-17.62-3.653-17.62-1.074,11.818.43,20.414-10.959,0-10.959,0-9.67-39.323-18.91-74.779S184.355,453,186.074,445.046s6.446-30.728,3.008-32.877S182.063,399.893,182.063,399.893Z" transform="translate(-84.5 -79.126)" fill="#2f2e41"/><path d="M151.076,399.874s-5.614,3.055-19.8,13.155-23.852,17.835-23.852,17.835-5.587,4.3-9.025,29.868-11.174,91.755-8.166,100.135,4.083,13.323,3.008,18.265,22.563,4.727,22.992,3.653-.645-20.629.43-21.058,6.876,11.6,7.951,21.7,13.538,18.05,16.331,18.05,17.191-58.233,17.405-97.986-4.727-73.275-8.38-78S151.076,399.874,151.076,399.874Z" transform="translate(-84.5 -79.126)" fill="#2f2e41"/><path d="M188.867,751.037s1.719-4.727,7.736-3.223,10.1-3.868,10.1-3.868,3.223-.43,1.074,3.653-3.868,6.876-3.868,6.876S216.8,783.914,208.421,791s-18.05,2.793-18.05,2.793-9.455-6.661-9.025-24.282c0,0-.43-5.587-5.587-14.612s-9.025-22.777-2.793-25.356,7.835-2.674,7.835-2.674-2.916,13.337,4.616,18Z" transform="translate(-84.5 -79.126)" fill="#3f3d56"/><path d="M148.9,784.344s-5.157-9.67,3.438-10.744,17.835-1.719,17.405,2.793-1.5,11.389-1.5,11.389l1.5,4.942s.43,12.248,1.934,13.752,9.67,14.4-7.736,14.4-22.562-1.934-21.058-6.017,1.934-24.282,1.934-24.282Z" transform="translate(-84.5 -79.126)" fill="#3f3d56"/><path d="M162.222,351.788s12.033,3.223,18.265,4.513,5.587-2.364,5.587-2.364,8.165,1.074,7.736.215,3.438-5.372-1.074-10.529-3.223-9.025-3.223-9.025h-3.868l-1.074-1.5h-6.017s-4.512-1.719-16.331,0-27.935,2.149-29.224,9.24-7.951,15.9-5.587,19.984,15.9,20.844,17.19,27.935,7.309,8.667,7.093,4.226-6.233-19.912-1.076-20.557S164.586,360.168,162.222,351.788Z" transform="translate(-84.5 -79.126)" fill="#2f2e41"/></g></svg>